<?xml version="1.0" encoding="iso-8859-1"?>
<!-- Generator: Adobe Illustrator 19.0.0, SVG Export Plug-In . SVG Version: 6.00 Build 0)  -->
<svg version="1.1" id="Layer_1" xmlns="http://www.w3.org/2000/svg" xmlns:xlink="http://www.w3.org/1999/xlink" x="0px" y="0px"
	 viewBox="0 0 496 496" style="enable-background:new 0 0 496 496;" xml:space="preserve">
<g>
	<g>
		<g>
			<path d="M400,208H288v-32h-16v-32h-16V48h16V0h-48v48h16v96h-16v32h-16v32H96c-13.232,0-24,10.768-24,24v208
				c0,30.872,25.128,56,56,56h240c30.872,0,56-25.128,56-56V232C424,218.768,413.232,208,400,208z M240,16h16v16h-16V16z M240,160
				h16v16h-16V160z M224,192h48v16h-48V192z M408,384h-16v16h16v40c0,22.056-17.944,40-40,40H128c-22.056,0-40-17.944-40-40v-40h16
				v-16H88V232c0-4.416,3.584-8,8-8h144v16h16v-16h144c4.416,0,8,3.584,8,8V384z"/>
			<path d="M176,240c-39.704,0-72,32.296-72,72c0,39.704,32.296,72,72,72s72-32.296,72-72C248,272.296,215.704,240,176,240z
				 M176,368c-30.872,0-56-25.128-56-56s25.128-56,56-56s56,25.128,56,56S206.872,368,176,368z"/>
			<path d="M184,288h-48v48h48v-16h32v-16h-32V288z M168,320h-16v-16h16V320z"/>
			<path d="M320,240c-39.704,0-72,32.296-72,72c0,39.704,32.296,72,72,72c39.704,0,72-32.296,72-72C392,272.296,359.704,240,320,240
				z M320,368c-30.872,0-56-25.128-56-56s25.128-56,56-56s56,25.128,56,56S350.872,368,320,368z"/>
			<path d="M296,320h16v32h16v-32h16v-48h-48V320z M312,288h16v16h-16V288z"/>
			<path d="M168,400c-17.648,0-32,14.352-32,32s14.352,32,32,32s32-14.352,32-32S185.648,400,168,400z M168,448
				c-8.824,0-16-7.176-16-16c0-8.824,7.176-16,16-16c8.816,0,16,7.176,16,16C184,440.824,176.816,448,168,448z"/>
			<path d="M248,400c-17.648,0-32,14.352-32,32s14.352,32,32,32s32-14.352,32-32S265.648,400,248,400z M248,448
				c-8.824,0-16-7.176-16-16c0-8.824,7.176-16,16-16c8.816,0,16,7.176,16,16C264,440.824,256.816,448,248,448z"/>
			<path d="M328,400c-17.648,0-32,14.352-32,32s14.352,32,32,32s32-14.352,32-32S345.648,400,328,400z M328,448
				c-8.824,0-16-7.176-16-16c0-8.824,7.176-16,16-16c8.816,0,16,7.176,16,16C344,440.824,336.816,448,328,448z"/>
			<path d="M400,128c17.648,0,32-14.352,32-32s-14.352-32-32-32s-32,14.352-32,32S382.352,128,400,128z M400,80
				c8.816,0,16,7.184,16,16s-7.184,16-16,16c-8.824,0-16-7.184-16-16S391.176,80,400,80z"/>
			<path d="M400,0v16c44.112,0,80,35.888,80,80s-35.888,80-80,80v16c52.936,0,96-43.064,96-96C496,43.064,452.936,0,400,0z"/>
			<path d="M448,96c0,26.472-21.528,48-48,48v16c35.288,0,64-28.712,64-64c0-35.288-28.712-64-64-64v16
				C426.472,48,448,69.528,448,96z"/>
			<rect x="336" y="88" width="16" height="16"/>
			<rect x="304" y="88" width="16" height="16"/>
			<path d="M64,96c0,17.648,14.352,32,32,32s32-14.352,32-32s-14.352-32-32-32S64,78.352,64,96z M112,96c0,8.816-7.184,16-16,16
				c-8.824,0-16-7.184-16-16s7.176-16,16-16C104.816,80,112,87.184,112,96z"/>
			<path d="M96,176c-44.112,0-80-35.888-80-80s35.888-80,80-80V0C43.064,0,0,43.064,0,96s43.064,96,96,96V176z"/>
			<path d="M96,48V32c-35.288,0-64,28.712-64,64c0,35.288,28.712,64,64,64v-16c-26.472,0-48-21.528-48-48S69.528,48,96,48z"/>
			<rect x="144" y="88" width="16" height="16"/>
			<rect x="176" y="88" width="16" height="16"/>
		</g>
	</g>
</g>
<g>
</g>
<g>
</g>
<g>
</g>
<g>
</g>
<g>
</g>
<g>
</g>
<g>
</g>
<g>
</g>
<g>
</g>
<g>
</g>
<g>
</g>
<g>
</g>
<g>
</g>
<g>
</g>
<g>
</g>
</svg>
