<?xml version="1.0" encoding="iso-8859-1"?>
<!-- Generator: Adobe Illustrator 19.0.0, SVG Export Plug-In . SVG Version: 6.00 Build 0)  -->
<svg version="1.1" id="Layer_1" xmlns="http://www.w3.org/2000/svg" xmlns:xlink="http://www.w3.org/1999/xlink" x="0px" y="0px"
	 viewBox="0 0 496 496" style="enable-background:new 0 0 496 496;" xml:space="preserve">
<g>
	<g>
		<g>
			<path d="M440,232h-8V120H288v112h-16V120H144V0H0v16h128v104v112v16v96v136H0v16h144V344h224v152h16V344h16v152h16V344h24
				c30.872,0,56-25.128,56-56S470.872,232,440,232z M304,136h48v56h16v-56h48v96H304V136z M144,136h48v56h16v-56h48v96H144V136z
				 M440,328h-24v-16h-16v16h-48v-16h-16v16h-48v-16h-16v16h-48v-16h-16v16h-48v-16h-16v-48h16v-16h48v16h16v-16h48v16h16v-16h48v16
				h16v-16h48v16h16v-16h16h8c22.056,0,40,17.944,40,40C480,310.056,462.056,328,440,328z"/>
			<path d="M440,264c-13.232,0-24,10.768-24,24s10.768,24,24,24s24-10.768,24-24S453.232,264,440,264z M440,296
				c-4.416,0-8-3.584-8-8c0-4.416,3.584-8,8-8c4.416,0,8,3.584,8,8C448,292.416,444.416,296,440,296z"/>
			<path d="M376,264c-13.232,0-24,10.768-24,24s10.768,24,24,24s24-10.768,24-24S389.232,264,376,264z M376,296
				c-4.416,0-8-3.584-8-8c0-4.416,3.584-8,8-8c4.416,0,8,3.584,8,8C384,292.416,380.416,296,376,296z"/>
			<path d="M312,264c-13.232,0-24,10.768-24,24s10.768,24,24,24s24-10.768,24-24S325.232,264,312,264z M312,296
				c-4.416,0-8-3.584-8-8c0-4.416,3.584-8,8-8c4.416,0,8,3.584,8,8C320,292.416,316.416,296,312,296z"/>
			<path d="M248,264c-13.232,0-24,10.768-24,24s10.768,24,24,24s24-10.768,24-24S261.232,264,248,264z M248,296
				c-4.416,0-8-3.584-8-8c0-4.416,3.584-8,8-8s8,3.584,8,8C256,292.416,252.416,296,248,296z"/>
			<path d="M184,264c-13.232,0-24,10.768-24,24s10.768,24,24,24s24-10.768,24-24S197.232,264,184,264z M184,296
				c-4.416,0-8-3.584-8-8c0-4.416,3.584-8,8-8s8,3.584,8,8C192,292.416,188.416,296,184,296z"/>
			<path d="M88,128c0-48.52-39.48-88-88-88v16c39.704,0,72,32.296,72,72s-32.296,72-72,72v16C48.52,216,88,176.52,88,128z"/>
			<rect y="120" width="16" height="16"/>
			<rect x="32" y="120" width="16" height="16"/>
			<polygon points="80,256 0,256 0,272 64,272 64,328 0,328 0,344 80,344 			"/>
			<rect y="360" width="16" height="16"/>
			<rect x="32" y="360" width="16" height="16"/>
			<rect x="64" y="360" width="16" height="16"/>
		</g>
	</g>
</g>
<g>
</g>
<g>
</g>
<g>
</g>
<g>
</g>
<g>
</g>
<g>
</g>
<g>
</g>
<g>
</g>
<g>
</g>
<g>
</g>
<g>
</g>
<g>
</g>
<g>
</g>
<g>
</g>
<g>
</g>
</svg>
