<?xml version="1.0" encoding="iso-8859-1"?>
<!-- Generator: Adobe Illustrator 19.0.0, SVG Export Plug-In . SVG Version: 6.00 Build 0)  -->
<svg version="1.1" id="Layer_1" xmlns="http://www.w3.org/2000/svg" xmlns:xlink="http://www.w3.org/1999/xlink" x="0px" y="0px"
	 viewBox="0 0 496 496" style="enable-background:new 0 0 496 496;" xml:space="preserve">
<g>
	<g>
		<g>
			<path d="M80,200c-32.576,0-59.488,24.48-63.448,56H0v16h19.056L32,297.888v18.976l-17.48,3.28l2.952,15.72L32,333.136v23.728
				l-17.48,3.28l2.952,15.72L32,373.136v23.728l-17.48,3.28l2.952,15.72L32,413.136v21.76l48,57.6l47.768-57.32l17.712-3.32
				l-2.952-15.72L128,418.864v-23.728l17.48-3.28l-2.952-15.72L128,378.864v-23.728l17.48-3.28l-2.952-15.72L128,338.864v-23.728
				l17.48-3.28l-2.952-15.72L128,298.864v-0.976L140.944,272H160v-16h-16.56C139.488,224.48,112.576,200,80,200z M80,467.504
				l-16.84-20.208l39.92-7.488L80,467.504z M112,421.864l-60.568,11.352L48,429.104v-18.968l64-12V421.864z M112,381.864l-64,12
				v-23.728l64-12V381.864z M112,341.864l-64,12v-23.728l64-12V341.864z M112,294.112v7.752l-64,12v-19.752L36.944,272h86.112
				L112,294.112z M32.72,256c3.392-20.056,19.224-35.888,39.28-39.28V240h16v-23.28c20.056,3.384,35.888,19.224,39.28,39.28H32.72z"
				/>
			<path d="M352,408c0,30.872,25.128,56,56,56s56-25.128,56-56s-25.128-56-56-56S352,377.128,352,408z M416,368.808
				C431.648,372,444,384.352,447.192,400H432v16h15.192C444,431.648,431.648,444,416,447.192V432h-16v15.192
				C384.352,444,372,431.648,368.808,416H384v-16h-15.192C372,384.352,384.352,372,400,368.808V384h16V368.808z"/>
			<path d="M496,32V16h-16V0H336v16h-16v16h16v16h-16v16h16v16h-64V51.312l8.856-8.864L270.248,0h-44.504l-10.608,42.456L224,51.312
				V80H72v104h16V96h136v160h-32v16h16v184c0,22.056,17.944,40,40,40c22.056,0,40-17.944,40-40V272h16v-16h-32V96h64v16h-16v16h16
				v16h-16v16h16v16h64v49.136c-13.768,3.576-24,15.992-24,30.864s10.232,27.288,24,30.864v33.544
				c-44.784,4.056-80,41.768-80,87.592c0,48.52,39.48,88,88,88c48.52,0,88-39.48,88-88c0-45.824-35.216-83.536-80-87.592v-33.544
				c13.76-3.576,24-15.992,24-30.864s-10.24-27.288-24-30.864V176h64v-16h16v-16h-16v-16h16v-16h-16V96h16V80h-16V64h16V48h-16V32
				H496z M238.248,16h19.504l5.392,21.544L256,44.688V256h-16V44.688l-7.144-7.136L238.248,16z M272,288h-16v16h16v16h-16v16h16v16
				h-16v16h16v16h-16v16h16v16h-16v16h16v16h-16v16h14.528c-3.312,9.288-12.112,16-22.528,16s-19.216-6.712-22.528-16H240v-16h-16
				v-16h16v-16h-16v-16h16v-16h-16v-16h16v-16h-16v-16h16v-16h-16v-16h16v-16h-16v-16h48V288z M480,408c0,39.704-32.296,72-72,72
				c-39.704,0-72-32.296-72-72c0-39.704,32.296-72,72-72C447.704,336,480,368.296,480,408z M424,256c0,8.824-7.184,16-16,16
				c-8.824,0-16-7.176-16-16c0-8.824,7.176-16,16-16C416.816,240,424,247.176,424,256z M464,160H352V16h112V160z"/>
			<rect x="384" y="32" width="16" height="16"/>
			<rect x="384" y="64" width="16" height="80"/>
			<rect x="416" y="32" width="16" height="112"/>
		</g>
	</g>
</g>
<g>
</g>
<g>
</g>
<g>
</g>
<g>
</g>
<g>
</g>
<g>
</g>
<g>
</g>
<g>
</g>
<g>
</g>
<g>
</g>
<g>
</g>
<g>
</g>
<g>
</g>
<g>
</g>
<g>
</g>
</svg>
