<?xml version="1.0" encoding="iso-8859-1"?>
<!-- Generator: Adobe Illustrator 19.0.0, SVG Export Plug-In . SVG Version: 6.00 Build 0)  -->
<svg version="1.1" id="Layer_1" xmlns="http://www.w3.org/2000/svg" xmlns:xlink="http://www.w3.org/1999/xlink" x="0px" y="0px"
	 viewBox="0 0 497.832 497.832" style="enable-background:new 0 0 497.832 497.832;" xml:space="preserve">
<g>
	<g>
		<g>
			<path d="M320.916,297.832h-6.296l41.776-41.776l-14.936-14.944c2.504-4.904,4.616-10.016,6.32-15.28h21.136v-64h-21.144
				c-1.704-5.264-3.824-10.376-6.32-15.28l14.936-14.944L311.14,86.36l-1.656,1.656c-7.52-33.8-27.232-64.184-55.928-84.688
				L248.916,0l-4.648,3.32C215.572,23.816,195.86,54.2,188.34,88.008l-1.656-1.656L141.436,131.6l14.936,14.944
				c-2.504,4.904-4.616,10.016-6.32,15.28h-21.136v64h21.144c1.704,5.264,3.824,10.376,6.32,15.28l-14.936,14.944l41.768,41.784
				h-6.296c-30.872,0-56,25.128-56,56v64h16c0-22.056,17.944-40,40-40h8h8h16v72h16v-72h16v120h16v-120h16v72h16v-72h16h8h8
				c22.056,0,40,17.944,40,40h16v-64C376.916,322.96,351.788,297.832,320.916,297.832z M200.916,118.656
				c0-38.568,17.84-75.088,48-98.824c30.16,23.736,48,60.248,48,98.824v75.176c0,26.472-21.528,48-48,48s-48-21.528-48-48V118.656z
				 M184.916,361.832h-8c-15.656,0-29.832,6.456-40,16.84v-24.84c0-22.056,17.944-40,40-40h8V361.832z M296.916,361.832h-96v-74.744
				l0.72-0.72c4.904,2.504,10.016,4.616,15.28,6.32v21.144h64v-21.144c5.264-1.704,10.376-3.824,15.28-6.32l0.72,0.72V361.832z
				 M311.14,278.68l-12.272-12.256l-5.336,3.152c-7.032,4.16-14.64,7.304-22.616,9.36l-6,1.552v17.344h-32v-17.344l-6-1.552
				c-7.976-2.056-15.584-5.2-22.616-9.36l-5.336-3.152l-12.272,12.256l-22.624-22.624l12.256-12.272l-3.152-5.336
				c-4.16-7.032-7.304-14.64-9.36-22.616l-1.552-6h-17.344v-32h17.344l1.552-6c2.056-7.976,5.2-15.584,9.36-22.616l3.152-5.336
				l-12.256-12.272l21.096-21.096c-0.16,2.696-0.248,5.416-0.248,8.144v75.176c0,35.288,28.712,64,64,64c35.288,0,64-28.712,64-64
				v-75.176c0-2.728-0.088-5.44-0.248-8.144l21.096,21.096l-12.256,12.272l3.152,5.336c4.16,7.032,7.304,14.64,9.36,22.616l1.552,6
				h17.344v32h-17.344l-1.552,6c-2.056,7.976-5.2,15.584-9.36,22.616l-3.152,5.336l12.256,12.272L311.14,278.68z M360.916,378.672
				c-10.168-10.384-24.344-16.84-40-16.84h-8v-48h8c22.056,0,40,17.944,40,40V378.672z"/>
			<rect x="272.916" y="465.832" width="16" height="16"/>
			<rect x="208.916" y="465.832" width="16" height="16"/>
			<rect x="304.916" y="401.832" width="16" height="48"/>
			<rect x="176.916" y="401.832" width="16" height="48"/>
			<path d="M248.916,177.832c22.056,0,40-17.944,40-40c0-22.056-17.944-40-40-40c-22.056,0-40,17.944-40,40
				C208.916,159.888,226.86,177.832,248.916,177.832z M248.916,113.832c13.232,0,24,10.768,24,24s-10.768,24-24,24
				c-13.232,0-24-10.768-24-24S235.684,113.832,248.916,113.832z"/>
			<path d="M16.916,249.832c0-93.416,54.944-175.816,138.92-212.424l-9.784,16.304l13.72,8.232l30.048-50.08l-59.592-9.928
				l-2.624,15.784l24.08,4.016C60.628,60.352,0.916,149.128,0.916,249.832c0,70.408,30.136,137.768,82.664,184.8l10.672-11.92
				C45.1,378.704,16.916,315.696,16.916,249.832z"/>
			<path d="M427.996,421.208c43.968-45.984,68.92-107.392,68.92-171.376c0-108.92-69.768-204.016-173.6-236.632l-4.8,15.264
				c97.136,30.52,162.4,119.48,162.4,221.368c0,61.48-24.568,120.448-67.808,163.816l3.648-18.248l-15.688-3.144l-10.272,51.368
				l59.432-9.904l-2.624-15.784L427.996,421.208z"/>
		</g>
	</g>
</g>
<g>
</g>
<g>
</g>
<g>
</g>
<g>
</g>
<g>
</g>
<g>
</g>
<g>
</g>
<g>
</g>
<g>
</g>
<g>
</g>
<g>
</g>
<g>
</g>
<g>
</g>
<g>
</g>
<g>
</g>
</svg>
