<?xml version="1.0" encoding="iso-8859-1"?>
<!-- Generator: Adobe Illustrator 19.0.0, SVG Export Plug-In . SVG Version: 6.00 Build 0)  -->
<svg version="1.1" id="Layer_1" xmlns="http://www.w3.org/2000/svg" xmlns:xlink="http://www.w3.org/1999/xlink" x="0px" y="0px"
	 viewBox="0 0 496 496" style="enable-background:new 0 0 496 496;" xml:space="preserve">
<g>
	<g>
		<path d="M480,480V256h-16v-32h-16v32h-16V32h-16V16h-16v16h-16V0h-16v32h-16V16h-16v16h-16v328.648
			c-12.504,1.808-24.056,7.744-32.728,16.944c-4.712-3.192-9.864-5.6-15.272-7.224V352h16V224l-16-64.984V90.488
			c0-19.216-7.488-37.28-21.072-50.864L240,28.688V0h-16v28.688l-10.928,10.928C199.488,53.2,192,71.264,192,90.488v68.528
			l-15.76,63.048L176,352h16v9.032c-3.368,0.864-6.512,2.296-9.368,4.16c-0.344,0.224-0.68,0.456-1.016,0.688
			c-1.328,0.944-2.6,1.968-3.768,3.112c-0.208,0.2-0.432,0.376-0.632,0.584c-1.104,1.128-2.096,2.368-3.024,3.664
			c-0.536,0.736-1.016,1.512-1.496,2.296c-0.136,0.232-0.312,0.44-0.44,0.68c-4.656-0.48-9.048-0.192-13.648,0.808
			C148.296,361.44,130.976,352,112,352c-1.816,0-3.616,0.096-5.424,0.272c-1.616,0.16-3.2,0.408-4.776,0.704
			c-0.128,0.024-0.256,0.032-0.384,0.056C95.08,333.688,76.912,320,56,320c-14.528,0-27.936,6.48-37,17.608
			c-0.448-0.136-0.904-0.184-1.352-0.296c-0.928-0.232-1.848-0.456-2.8-0.616C12.576,336.28,10.296,336,8,336H0v16h8
			c3.496,0,7,0.84,10.424,2.504l0.48,0.232C26.64,358.728,32,366.712,32,376c0,13.232-10.768,24-24,24H0v16h8
			c22.056,0,40-17.944,40-40c0-12.32-5.72-23.216-14.504-30.56C39.416,339.448,47.408,336,56,336
			c14.008,0,26.16,9.264,30.296,22.304C68.328,367.64,56,386.392,56,408c0,30.872,25.128,56,56,56v-16c-22.056,0-40-17.944-40-40
			c0-17.976,12-33.048,28.36-38.072c1.552-0.472,3.112-0.952,4.68-1.224c0.976-0.176,2-0.2,3-0.304
			c16.24-1.592,32.192,6.864,39.648,21.608l3.168,6.256l6.624-2.32c3.768-1.312,7.064-1.896,10.536-1.872
			C168.048,409.688,182.376,424,200,424v-16c-8.824,0-16-7.176-16-16c0-1.008,0.12-1.992,0.296-2.944l0.48-1.616
			c1-3.336,2.984-6.104,5.552-8.104c0.104-0.08,0.2-0.176,0.304-0.248c1.2-0.88,2.536-1.56,3.944-2.08
			c0.28-0.104,0.576-0.184,0.864-0.272c1.456-0.432,2.976-0.736,4.56-0.736h8v-24h48v16v8v8c10.032,0,19.648,3.776,27.088,10.632
			l6.768,6.24l5.24-7.576C301.024,384.712,310,378.928,320,376.88V432H128v48H0v16h496v-16H480z M272,304h-16v-40h16V304z
			 M207.848,136H240v-16h-32.104l0.08-24H240V80h-31c2.064-10.952,7.336-21.024,15.384-29.072L232,43.312l7.616,7.616
			C250.176,61.496,256,75.536,256,90.488V152h-48.208L207.848,136z M206.24,168h51.728l11.816,48H194.24L206.24,168z M192,232h80v16
			h-80V232z M240,264v40h-16v-40H240z M192,264h16v40h-16V264z M192,336v-16h80v16H192z M320,480H144v-32h176V480z M416,480h-80
			v-2.24l80-26.664V480z M416,434.24l-80,26.664V432h80V434.24z M416,416h-80v-2.24l80-26.664V416z M416,370.24l-80,26.664V368h80
			V370.24z M416,352h-80v-2.24l80-26.664V352z M416,306.24l-80,26.664V304h80V306.24z M416,288h-80v-2.24l80-26.664V288z
			 M416,242.24l-80,26.664V240h80V242.24z M416,224h-80v-2.24l80-26.664V224z M416,178.24l-80,26.664V176h80V178.24z M416,160h-80
			v-2.24l80-26.664V160z M416,114.24l-80,26.664V112h80V114.24z M416,96h-80v-2.24l80-26.664V96z M416,50.24l-80,26.664V48h80V50.24
			z M464,288h-16v16h16v16h-16v16h16v16h-16v16h16v16h-16v16h16v16h-16v16h16v16h-16v16h16v16h-32V272h32V288z"/>
	</g>
</g>
<g>
</g>
<g>
</g>
<g>
</g>
<g>
</g>
<g>
</g>
<g>
</g>
<g>
</g>
<g>
</g>
<g>
</g>
<g>
</g>
<g>
</g>
<g>
</g>
<g>
</g>
<g>
</g>
<g>
</g>
</svg>
